<svg width="454" height="215" viewBox="0 0 454 215" fill="none" xmlns="http://www.w3.org/2000/svg">
<rect width="454" height="215" fill="#E5E5E5"/>
<rect width="454" height="215" fill="white"/>
<path d="M261.77 128.82C273.318 128.82 282.68 119.458 282.68 107.91C282.68 96.3618 273.318 87 261.77 87C250.222 87 240.86 96.3618 240.86 107.91C240.86 119.458 250.222 128.82 261.77 128.82Z" fill="#0B0C0E"/>
<path d="M261.77 97.12C265.28 97.12 265.7 97.13 267.09 97.2C268.37 97.26 269.07 97.47 269.53 97.65C270.14 97.89 270.58 98.17 271.04 98.63C271.5 99.09 271.79 99.53 272.02 100.14C272.2 100.6 272.41 101.3 272.47 102.58C272.53 103.97 272.55 104.38 272.55 107.9C272.55 111.41 272.54 111.83 272.47 113.22C272.41 114.5 272.2 115.2 272.02 115.66C271.78 116.27 271.5 116.71 271.04 117.17C270.58 117.63 270.14 117.92 269.53 118.15C269.07 118.33 268.37 118.54 267.09 118.6C265.7 118.66 265.29 118.68 261.77 118.68C258.25 118.68 257.84 118.67 256.45 118.6C255.17 118.54 254.47 118.33 254.01 118.15C253.4 117.91 252.96 117.63 252.5 117.17C252.04 116.71 251.75 116.27 251.52 115.66C251.34 115.2 251.13 114.5 251.07 113.22C251.01 111.83 250.99 111.42 250.99 107.9C250.99 104.39 251 103.97 251.07 102.58C251.13 101.3 251.34 100.6 251.52 100.14C251.76 99.53 252.04 99.09 252.5 98.63C252.96 98.17 253.4 97.88 254.01 97.65C254.47 97.47 255.17 97.26 256.45 97.2C257.83 97.13 258.25 97.12 261.77 97.12ZM261.77 94.75C258.2 94.75 257.75 94.77 256.34 94.83C254.94 94.89 253.98 95.12 253.14 95.44C252.27 95.78 251.54 96.23 250.81 96.96C250.08 97.69 249.63 98.43 249.29 99.29C248.96 100.13 248.74 101.08 248.68 102.49C248.62 103.89 248.6 104.34 248.6 107.92C248.6 111.5 248.62 111.94 248.68 113.35C248.74 114.75 248.97 115.71 249.29 116.55C249.63 117.42 250.08 118.15 250.81 118.88C251.54 119.61 252.28 120.06 253.14 120.4C253.98 120.73 254.93 120.95 256.34 121.01C257.74 121.07 258.19 121.09 261.77 121.09C265.35 121.09 265.79 121.07 267.2 121.01C268.6 120.95 269.56 120.72 270.4 120.4C271.27 120.06 272 119.61 272.73 118.88C273.46 118.15 273.91 117.41 274.25 116.55C274.58 115.71 274.8 114.76 274.86 113.35C274.92 111.95 274.94 111.5 274.94 107.92C274.94 104.35 274.92 103.9 274.86 102.49C274.8 101.09 274.57 100.13 274.25 99.29C273.91 98.42 273.46 97.69 272.73 96.96C272 96.23 271.26 95.78 270.4 95.44C269.56 95.11 268.61 94.89 267.2 94.83C265.79 94.76 265.34 94.75 261.77 94.75Z" fill="white"/>
<path d="M261.77 101.15C258.04 101.15 255.01 104.18 255.01 107.91C255.01 111.64 258.04 114.67 261.77 114.67C265.5 114.67 268.53 111.64 268.53 107.91C268.53 104.18 265.5 101.15 261.77 101.15ZM261.77 112.3C259.35 112.3 257.38 110.34 257.38 107.91C257.38 105.49 259.34 103.52 261.77 103.52C264.2 103.52 266.16 105.48 266.16 107.91C266.15 110.33 264.19 112.3 261.77 112.3Z" fill="white"/>
<path d="M268.79 102.46C269.663 102.46 270.37 101.753 270.37 100.88C270.37 100.007 269.663 99.3 268.79 99.3C267.917 99.3 267.21 100.007 267.21 100.88C267.21 101.753 267.917 102.46 268.79 102.46Z" fill="white"/>
<path d="M192.34 128.82C203.888 128.82 213.25 119.458 213.25 107.91C213.25 96.3618 203.888 87 192.34 87C180.792 87 171.43 96.3618 171.43 107.91C171.43 119.458 180.792 128.82 192.34 128.82Z" fill="#0B0C0E"/>
<path fill-rule="evenodd" clip-rule="evenodd" d="M192.34 92.42C183.44 92.42 176.54 98.94 176.54 107.74C176.54 112.34 178.43 116.32 181.5 119.07C181.76 119.3 181.91 119.62 181.92 119.97L182.01 122.78C182.04 123.68 182.96 124.26 183.78 123.9L186.92 122.52C187.19 122.4 187.48 122.38 187.76 122.46C189.2 122.86 190.73 123.07 192.33 123.07C201.23 123.07 208.13 116.55 208.13 107.75C208.13 98.94 201.24 92.42 192.34 92.42Z" fill="white"/>
<path fill-rule="evenodd" clip-rule="evenodd" d="M182.85 112.22L187.49 104.86C188.23 103.69 189.81 103.4 190.92 104.23L194.61 107C194.95 107.25 195.41 107.25 195.75 107L200.73 103.22C201.4 102.72 202.26 103.51 201.82 104.22L197.18 111.58C196.44 112.75 194.86 113.04 193.75 112.21L190.06 109.44C189.72 109.19 189.26 109.19 188.92 109.44L183.94 113.22C183.28 113.73 182.41 112.93 182.85 112.22Z" fill="black"/>
<path d="M331.19 128.82C342.738 128.82 352.1 119.458 352.1 107.91C352.1 96.3618 342.738 87 331.19 87C319.642 87 310.28 96.3618 310.28 107.91C310.28 119.458 319.642 128.82 331.19 128.82Z" fill="#0B0C0E"/>
<path fill-rule="evenodd" clip-rule="evenodd" d="M341.25 98.11C338.75 95.6 335.42 94.22 331.87 94.22C324.56 94.22 318.61 100.17 318.61 107.48C318.61 109.82 319.22 112.1 320.38 114.11L318.5 120.98L325.53 119.14C327.47 120.2 329.65 120.75 331.87 120.75H331.88C339.19 120.75 345.14 114.8 345.14 107.49C345.13 103.95 343.75 100.61 341.25 98.11ZM331.87 118.51C329.89 118.51 327.95 117.98 326.26 116.97L325.86 116.73L321.69 117.82L322.8 113.75L322.54 113.33C321.44 111.58 320.85 109.55 320.85 107.47C320.85 101.39 325.8 96.45 331.88 96.45C334.82 96.45 337.59 97.6 339.67 99.68C341.75 101.76 342.9 104.53 342.9 107.48C342.89 113.56 337.94 118.51 331.87 118.51ZM337.91 110.25C337.58 110.08 335.95 109.28 335.65 109.17C335.35 109.06 335.13 109 334.9 109.34C334.67 109.68 334.04 110.42 333.85 110.64C333.66 110.86 333.46 110.89 333.13 110.72C332.8 110.55 331.73 110.2 330.47 109.08C329.49 108.2 328.82 107.12 328.63 106.79C328.44 106.46 328.61 106.28 328.78 106.11C328.93 105.96 329.11 105.72 329.28 105.53C329.45 105.34 329.5 105.2 329.61 104.98C329.72 104.76 329.67 104.57 329.58 104.4C329.5 104.23 328.83 102.6 328.56 101.94C328.29 101.29 328.02 101.38 327.81 101.37C327.62 101.36 327.4 101.36 327.17 101.36C326.95 101.36 326.59 101.44 326.29 101.77C325.99 102.1 325.13 102.9 325.13 104.53C325.13 106.16 326.32 107.74 326.48 107.96C326.65 108.18 328.82 111.53 332.14 112.96C332.93 113.3 333.55 113.51 334.03 113.66C334.82 113.91 335.55 113.88 336.12 113.79C336.76 113.69 338.08 112.99 338.36 112.21C338.64 111.44 338.64 110.77 338.55 110.63C338.46 110.49 338.24 110.42 337.91 110.25Z" fill="white"/>
<path d="M143.82 107.91C143.82 96.36 134.46 87 122.91 87C111.36 87 102 96.36 102 107.91C102 118.34 109.64 126.99 119.64 128.56V113.95H114.33V107.91H119.64V103.3C119.64 98.06 122.76 95.17 127.54 95.17C129.83 95.17 132.22 95.58 132.22 95.58V100.72H129.58C126.98 100.72 126.17 102.33 126.17 103.98V107.9H131.97L131.04 113.94H126.17V128.55C136.17 126.99 143.82 118.34 143.82 107.91Z" fill="#0B0C0E"/>
<path d="M131.05 113.95L131.98 107.91H126.18V103.99C126.18 102.34 126.99 100.73 129.59 100.73H132.23V95.59C132.23 95.59 129.84 95.18 127.55 95.18C122.77 95.18 119.65 98.07 119.65 103.31V107.92H114.34V113.96H119.65V128.57C120.71 128.74 121.81 128.82 122.92 128.82C124.03 128.82 125.12 128.73 126.19 128.57V113.96H131.05V113.95Z" fill="white"/>
</svg>
