<svg xmlns="http://www.w3.org/2000/svg" xmlns:svgjs="http://svgjs.com/svgjs" xmlns:xlink="http://www.w3.org/1999/xlink" width="288" height="288"><path fill="#ea4335" d="M 144,0 C 5,0 0,5 0,144 0,283 5,288 144,288 283,288 288,283 288,144 288,5 283,0 144,0 Z" transform="translate(30.01 30.01) scale(.7916)"/><svg xmlns="http://www.w3.org/2000/svg" width="288" height="288" transform="translate(77.011 77.011) scale(.4652)" viewBox="0 0 24 24"><g class="color000 svgShape" data-name="Layer 2"><g class="color000 svgShape" data-name="list"><circle cx="4" cy="7" r="1" class="color000 svgShape"/><circle cx="4" cy="12" r="1" class="color000 svgShape"/><circle cx="4" cy="17" r="1" class="color000 svgShape"/><rect width="14" height="2" x="7" y="11" class="color000 svgShape" rx=".94" ry=".94"/><rect width="14" height="2" x="7" y="16" class="color000 svgShape" rx=".94" ry=".94"/><rect width="14" height="2" x="7" y="6" class="color000 svgShape" rx=".94" ry=".94"/></g></g></svg></svg>